<?xml version="1.0" encoding="utf-8"?>
<!-- Generator: Adobe Illustrator 17.1.0, SVG Export Plug-In . SVG Version: 6.00 Build 0)  -->
<!DOCTYPE svg PUBLIC "-//W3C//DTD SVG 1.1//EN" "http://www.w3.org/Graphics/SVG/1.1/DTD/svg11.dtd">
<svg version="1.1" id="Layer_1" xmlns="http://www.w3.org/2000/svg" xmlns:xlink="http://www.w3.org/1999/xlink" x="0px" y="0px"
	 viewBox="170.3 0.5 97.5 34.5" enable-background="new 170.3 0.5 97.5 34.5" xml:space="preserve">
<path fill="#E97F5F" d="M266.3,14.6c-0.7-0.2-1.5,0.2-1.7,0.9c-1.6,0.9-7,3.8-11.7,3.8c-3.1,0-5.2-0.4-6.5-0.7
	c1.7-1.4,2.7-3.5,2.7-5.8c0-4.2-3.3-7.5-7.3-7.5c-3.9,0-7,3.1-7.3,6.9c-1-0.8-2.2-1.7-3.3-2.6c-0.2-0.2-0.6-0.5-0.9-0.8
	c-2.7-2.4-8.9-8-17.1-8c-11.4,0-16.1,6-17.6,8l-0.1,0.1c-0.2,0.2-0.4,0.5-0.6,0.8c-2,2.7-7.1,9.8-12.6,9.8c-2.2,0-3.9-0.5-4.9-1.6
	c-1.4-1.4-1.4-3.3-1.4-3.3c0-0.1,0-0.1,0-0.2c-0.1-0.6,0-2.5,0.8-3.4c0.2-0.3,0.7-0.6,1.7-0.6c1.3,0,1.6,0.5,1.8,0.6
	c0.6,0.9,0.3,2.7,0,3.4c-0.2,0.5-0.1,1,0.3,1.4c0.4,0.4,0.9,0.5,1.4,0.4c2-0.6,2.9-3.5,2.6-5.9c-0.5-2.9-2.7-4.7-6-4.7
	c-2.1,0-3.8,0.7-5.1,2c-2.5,2.6-2.4,6.8-2.4,7c0,0.1,0,4.5,3,7.5c1.8,1.9,4.4,2.8,7.5,2.8c5.2,0,9.2-2.6,11.6-4.8
	c0.1,3.7,1.3,6.9,3.4,9.5c3.4,4,8.3,5.4,10.8,5.4c5.2,0,12.9-3,12.9-11.4c0-3.1-0.9-5.5-2.7-7.1c-2.5-2.3-5.8-2-6.1-2
	c-2.7,0.1-7.5,1.7-7.5,7.3c0,2.5,1.1,3.8,1.9,4.4c2.4,1.7,5.9,0.6,6.3,0.5c0.6-0.2,1-0.8,0.9-1.5c-0.1-0.6-0.6-1.2-1.2-1.2
	c-0.4,0-2.2-0.4-2.2-2.1c0-1.5,1.4-1.7,2-1.7c0.1,0,0.1,0,0.2,0c0,0,1.2-0.1,2,0.6c0.6,0.5,0.9,1.4,0.9,2.7c0,1.6-0.5,2.8-1.4,3.8
	c-2,2-5.6,1.9-5.6,1.9c-0.3,0-8.4-0.5-8.5-9.9c-0.1-11.5,11.4-12.3,11.9-12.3c0,0,0.1,0,0.1,0c0.1,0,7.1-1,13.2,4.4
	c10.5,9.2,19.3,13.6,27.1,13.6c8.4,0,14.7-4.2,15.8-8v0l0.1-0.4c0-0.1,0-0.1,0-0.1C267.5,15.5,267,14.8,266.3,14.6z"/>
</svg>
